<?xml version="1.0" standalone="no"?>
<!DOCTYPE svg PUBLIC "-//W3C//DTD SVG 20010904//EN"
 "http://www.w3.org/TR/2001/REC-SVG-20010904/DTD/svg10.dtd">
<svg version="1.0" xmlns="http://www.w3.org/2000/svg"
 width="512.000000pt" height="512.000000pt" viewBox="0 0 512.000000 512.000000"
 preserveAspectRatio="xMidYMid meet">
<metadata>
Created by potrace 1.11, written by Peter Selinger 2001-2013
</metadata>
<g transform="translate(0.000000,512.000000) scale(0.100000,-0.100000)"
fill="#000000" stroke="none">
<path d="M1860 5109 c-33 -14 -68 -47 -88 -84 -13 -24 -17 -69 -18 -240 -1
-115 -3 -217 -3 -226 -1 -11 -14 -18 -38 -22 -89 -15 -204 -100 -256 -189 -63
-107 -60 -43 -61 -1068 -1 -514 2 -960 7 -990 23 -154 152 -295 305 -334 l46
-12 1 -224 c1 -186 3 -230 17 -255 66 -123 231 -120 299 5 10 19 14 82 15 245
1 121 3 223 3 226 1 4 18 10 38 14 145 27 287 181 310 335 5 30 8 471 8 980
-1 829 -3 931 -18 980 -42 140 -156 250 -302 289 l-40 10 1 208 c0 114 -3 222
-8 240 -9 35 -49 88 -78 103 -28 15 -112 21 -140 9z m197 -895 c-3 -3 -12 -4
-19 -1 -8 3 -5 6 6 6 11 1 17 -2 13 -5z m-199 -1941 c-10 -2 -26 -2 -35 0 -10
3 -2 5 17 5 19 0 27 -2 18 -5z m85 0 c-7 -2 -19 -2 -25 0 -7 3 -2 5 12 5 14 0
19 -2 13 -5z m90 0 c-7 -2 -21 -2 -30 0 -10 3 -4 5 12 5 17 0 24 -2 18 -5z"/>
<path d="M4401 4869 c-91 -55 -88 -29 -87 -761 l1 -627 -25 -6 c-14 -4 -33 -9
-44 -11 -74 -14 -198 -119 -241 -204 -49 -97 -48 -78 -50 -1050 0 -503 3 -941
7 -973 22 -165 131 -292 297 -346 l55 -18 1 -224 c0 -216 1 -225 23 -261 32
-51 82 -80 140 -81 61 0 105 23 140 75 l27 42 2 220 c1 122 2 224 2 228 1 3
16 9 34 13 101 19 234 125 277 219 46 102 44 73 45 1056 1 1006 2 998 -51
1101 -14 29 -48 74 -75 101 -49 49 -156 108 -196 108 -12 0 -25 5 -29 12 -4 6
-8 300 -8 652 -1 691 1 663 -54 714 -50 47 -133 56 -191 21z m-71 -1733 c0 -2
-8 -10 -17 -17 -16 -13 -17 -12 -4 4 13 16 21 21 21 13z"/>
<path d="M3143 4823 c-26 -5 -81 -58 -96 -93 -6 -15 -11 -113 -12 -240 -1
-119 -5 -221 -9 -228 -4 -7 -16 -12 -28 -12 -39 0 -150 -62 -200 -112 -58 -58
-104 -149 -115 -228 -5 -30 -8 -426 -8 -880 1 -870 0 -852 47 -948 48 -96 160
-188 258 -212 34 -8 50 -17 51 -28 1 -10 2 -399 3 -867 1 -778 3 -853 18 -881
40 -73 126 -109 202 -84 40 13 105 82 108 114 0 12 2 401 4 866 1 465 3 850 3
856 1 7 22 17 49 24 136 34 245 144 293 295 10 31 13 228 14 865 0 454 -3 850
-8 880 -12 80 -58 171 -115 228 -51 51 -158 110 -206 114 -14 1 -26 7 -27 13
0 5 -2 107 -3 225 -3 252 -8 271 -86 319 -33 20 -81 25 -137 14z m-93 -907 c0
-2 -8 -10 -17 -17 -16 -13 -17 -12 -4 4 13 16 21 21 21 13z m321 -13 c13 -16
12 -17 -3 -4 -17 13 -22 21 -14 21 2 0 10 -8 17 -17z m10 -1676 c-10 -9 -11
-8 -5 6 3 10 9 15 12 12 3 -3 0 -11 -7 -18z m-214 -43 c-3 -3 -12 -4 -19 -1
-8 3 -5 6 6 6 11 1 17 -2 13 -5z"/>
<path d="M565 4540 c-22 -11 -51 -37 -65 -58 -24 -36 -25 -40 -26 -259 0 -123
-3 -226 -7 -229 -3 -3 -36 -17 -72 -29 -110 -39 -183 -104 -236 -211 -17 -34
-34 -85 -38 -115 -4 -30 -7 -571 -6 -1204 1 -1274 -3 -1202 66 -1310 58 -92
145 -155 254 -184 l40 -10 0 -223 c0 -191 3 -228 18 -258 33 -67 127 -105 200
-81 43 15 93 68 105 113 4 18 8 126 7 241 l0 208 40 10 c164 44 291 184 313
345 4 32 7 574 6 1204 -1 1046 -2 1150 -18 1201 -40 133 -142 236 -276 279
l-65 21 1 212 c1 225 -4 258 -49 305 -31 34 -53 43 -106 48 -33 3 -57 -1 -86
-16z"/>
</g>
</svg>
